<?xml version="1.0" encoding="utf-8"?>
<!-- Generator: Adobe Illustrator 19.2.0, SVG Export Plug-In . SVG Version: 6.00 Build 0)  -->
<svg version="1.1" id="Layer_2" xmlns="http://www.w3.org/2000/svg" xmlns:xlink="http://www.w3.org/1999/xlink" x="0px" y="0px"
	 viewBox="0 0 473.1 398.4" style="enable-background:new 0 0 473.1 398.4;" xml:space="preserve">
<style type="text/css">
	.st0{fill:#C8E0E5;}
	.st1{fill:#74609D;}
	.st2{fill:#D6F1FC;}
	.st3{fill:#D2C9AA;}
	.st4{fill:#29ABE2;}
	.st5{fill:#448CCB;}
	.st6{fill:#02BFF3;}
</style>
<path class="st0" d="M169,149.6c-0.9-3.6-14.8-22.2-31.1-44c-22.3-2.9-42.8,12.8-45.7,35.2c-2.9,22.3,12.8,42.8,35.2,45.7
	c14.3,1.9,28.5-4,37.4-15.3C167.9,161.1,169.7,152.6,169,149.6z"/>
<path class="st0" d="M308.3,171.1c13.8,17.8,39.5,21,57.2,7.1c17.8-13.8,21-39.5,7.1-57.2c-8.9-11.4-23.1-17.3-37.5-15.4
	c-16.3,21.8-30.1,40.3-31.1,44C303.3,152.6,305.2,161.1,308.3,171.1z"/>
<g id="eyes">
	<circle class="st1 eye" cx="132.6" cy="146.1" r="25.3"/>
	<circle class="st1 eye" cx="340.4" cy="146.1" r="25.3"/>
</g>
<title>logo</title>
<path class="st2" d="M88.1,35.2c-1.1-2-2-3.7-2.7-5.2C30.5,38.4-7.2,89.6,1.1,144.5c5,32.7,25.7,60.9,55.5,75.3
	C34.2,157,46.1,87.1,88.1,35.2z"/>
<path class="st3" d="M88,193.6c12-2.5,44.8,27.1,53,26.4c5.5-0.5,17.4-28.1,23.8-48.9c-13.8,17.8-39.5,21-57.2,7.1
	s-21-39.5-7.1-57.2c8.9-11.4,23.1-17.3,37.5-15.4C119.1,80.5,97.1,51,88.1,35.2C46.1,87.1,34.2,157,56.6,219.8
	c3.2,1.5,6.4,2.9,9.7,4.1C66.1,207.4,76.6,196,88,193.6z"/>
<path class="st4" d="M164.9,52.2l10.4,10.1C172.1,58.7,168.6,55.3,164.9,52.2z"/>
<path class="st2" d="M427.6,155.4c0,21.9-3.7,43.7-11.1,64.4c50-24.2,70.8-84.3,46.6-134.3C448.6,55.7,420.4,35,387.7,30
	c-0.7,1.5-1.6,3.2-2.7,5.2C412.6,69.2,427.6,111.7,427.6,155.4z"/>
<path class="st4" d="M297.8,62.3l10.4-10.1C304.5,55.3,301,58.7,297.8,62.3z"/>
<path class="st3" d="M385,35.2c-9,15.8-31,45.3-49.8,70.4c22.3-2.9,42.8,12.8,45.7,35.2c2.9,22.3-12.8,42.8-35.2,45.7
	c-14.3,1.9-28.5-4-37.4-15.3c6.4,20.8,18.3,48.4,23.8,48.9c8.2,0.7,41-28.9,53-26.4c11.4,2.4,21.8,13.8,21.6,30.3
	c3.3-1.2,6.5-2.6,9.7-4.1C438.9,157,427,87.1,385,35.2z"/>
<path class="st5" d="M312.2,330.9l-14.6-12.7c-2.3,2.2-4.2,4.1-5.5,5.4c-3.2,3.2-14.1,11.2-27.8,20.9c-8.6,6-18.2,12.7-27.8,19.2
	c26.1,17.9,51.5,34.7,51.5,34.7l84.8-14.8L312.2,330.9z"/>
<g id="lids">
	<polygon class="st3" points="155.6,129.6 88.1,105.3 130.5,95.6 	"/>
	<polygon class="st3" points="317.8,129.2 385.3,104.9 342.9,95.3 	"/>
</g>
<path class="st5" d="M175.3,62.3l-10.4-10.1l-47.6-46L110.7,0c0,0-25.7,12.6-26.7,25.1c-0.1,1,0.4,2.7,1.4,4.9
	c0.7,1.5,1.6,3.2,2.7,5.2c9,15.8,31,45.3,49.8,70.4c16.2,21.8,30.1,40.4,31.1,44c0.8,3-1.1,11.4-4.2,21.5
	c-6.4,20.8-18.3,48.4-23.8,48.9c-8.2,0.7-41-28.9-53-26.4c-11.4,2.4-21.8,13.8-21.6,30.3c0,0.9,0,1.8,0.1,2.8l56,41.4
	c0,0,36.8,34.5,53,50.1l8.2-7.1l17.6-155.7l35.3-34.1L175.3,62.3z"/>
<path class="st6" d="M385,35.2c-9,15.8-31,45.3-49.8,70.4c-16.3,21.8-30.1,40.3-31.1,44c-0.8,3,1.1,11.4,4.2,21.5
	c6.4,20.8,18.3,48.4,23.8,48.9c8.2,0.7,41-28.9,53-26.4c11.4,2.4,21.8,13.8,21.6,30.3c0,0.9,0,1.8-0.1,2.8l-56,41.4
	c0,0-36.8,34.5-53,50.1c-2.3,2.2-4.2,4.1-5.5,5.4c-3.2,3.2-14.1,11.2-27.8,20.9c-8.6,6-18.2,12.7-27.8,19.2
	c-26.1,17.9-51.4,34.8-51.4,34.8l-84.8-14.8l60.6-52.7l14.6-12.7l8.2-7.1l17.6-155.7l35.3-34.1l61.2-59.1l10.4-10.1l47.6-46l6.5-6.2
	c0,0,25.8,12.6,26.8,25.1c0.1,1-0.4,2.7-1.4,4.9L385,35.2z"/>
</svg>
